<svg width="101" height="97" viewBox="0 0 101 97" fill="none" xmlns="http://www.w3.org/2000/svg">
<g filter="url(#filter0_d_774_3173)">
<g filter="url(#filter1_d_774_3173)">
<path d="M30.3058 38.524L14 67H23.0309L35.0722 46.084L30.3058 38.524Z" fill="#FCF3F9"/>
<path d="M36.3265 67L32.3127 59.692H52.3814L35.0722 30.208L50.3746 4L65.4261 30.208L61.4124 37.516L50.3746 19.372L44.1031 30.208L65.4261 67H36.3265Z" fill="#FCF3F9"/>
<path d="M66.4296 46.084L70.6942 38.524L87 67H78.7216L66.4296 46.084Z" fill="#FCF3F9"/>
</g>
<g filter="url(#filter2_d_774_3173)">
<path d="M4.7241 92C4.60677 92 4.49677 91.956 4.3941 91.868C4.3061 91.78 4.2621 91.67 4.2621 91.538L4.3061 91.34L9.6081 77.15C9.71077 76.7833 9.96744 76.6 10.3781 76.6H12.7761C13.1574 76.6 13.4141 76.7833 13.5461 77.15L18.8481 91.34C18.8628 91.384 18.8701 91.45 18.8701 91.538C18.8701 91.67 18.8261 91.78 18.7381 91.868C18.6501 91.956 18.5474 92 18.4301 92H16.5161C16.3254 92 16.1788 91.956 16.0761 91.868C15.9734 91.78 15.9074 91.6847 15.8781 91.582L14.8441 88.898H8.3101L7.2761 91.582C7.15877 91.8607 6.9461 92 6.6381 92H4.7241ZM14.0741 86.368L11.5661 79.57L9.0801 86.368H14.0741ZM21.452 92C21.3053 92 21.1807 91.9487 21.078 91.846C20.9753 91.7433 20.924 91.6187 20.924 91.472V77.15C20.924 76.9887 20.968 76.8567 21.056 76.754C21.1587 76.6513 21.2907 76.6 21.452 76.6H23.146C23.322 76.6 23.454 76.6367 23.542 76.71C23.63 76.7687 23.7107 76.8493 23.784 76.952L30.12 86.808V77.15C30.12 76.9887 30.164 76.8567 30.252 76.754C30.3547 76.6513 30.4867 76.6 30.648 76.6H32.496C32.6573 76.6 32.7893 76.6513 32.892 76.754C32.9947 76.8567 33.046 76.9887 33.046 77.15V91.45C33.046 91.6113 32.9947 91.7433 32.892 91.846C32.7893 91.9487 32.6647 92 32.518 92H30.802C30.5527 92 30.34 91.8827 30.164 91.648L23.85 82.012V91.472C23.85 91.6333 23.7987 91.7653 23.696 91.868C23.5933 91.956 23.4613 92 23.3 92H21.452ZM37.0067 92C36.86 92 36.7354 91.9487 36.6327 91.846C36.53 91.7433 36.4787 91.6187 36.4787 91.472V77.128C36.4787 76.9667 36.53 76.842 36.6327 76.754C36.7354 76.6513 36.86 76.6 37.0067 76.6H39.0747C39.236 76.6 39.3607 76.6513 39.4487 76.754C39.5514 76.842 39.6027 76.9667 39.6027 77.128V91.472C39.6027 91.6187 39.5514 91.7433 39.4487 91.846C39.3607 91.9487 39.236 92 39.0747 92H37.0067ZM48.3989 92.22C47.0936 92.22 45.9716 92.022 45.0329 91.626C44.0942 91.23 43.3829 90.7093 42.8989 90.064C42.4149 89.4187 42.1582 88.722 42.1289 87.974C42.1289 87.842 42.1729 87.732 42.2609 87.644C42.3489 87.556 42.4589 87.512 42.5909 87.512H44.5489C44.7249 87.512 44.8569 87.5487 44.9449 87.622C45.0476 87.6807 45.1429 87.7833 45.2309 87.93C45.3776 88.4287 45.7149 88.8467 46.2429 89.184C46.7709 89.5213 47.4896 89.69 48.3989 89.69C49.4402 89.69 50.2249 89.5213 50.7529 89.184C51.2809 88.832 51.5449 88.348 51.5449 87.732C51.5449 87.3213 51.4056 86.984 51.1269 86.72C50.8629 86.456 50.4596 86.2287 49.9169 86.038C49.3889 85.8473 48.5969 85.6127 47.5409 85.334C45.8102 84.9233 44.5416 84.3807 43.7349 83.706C42.9429 83.0167 42.5469 82.0413 42.5469 80.78C42.5469 79.9293 42.7742 79.174 43.2289 78.514C43.6982 77.854 44.3656 77.3333 45.2309 76.952C46.1109 76.5707 47.1302 76.38 48.2889 76.38C49.4916 76.38 50.5329 76.5927 51.4129 77.018C52.2929 77.4433 52.9602 77.9787 53.4149 78.624C53.8842 79.2547 54.1336 79.8853 54.1629 80.516C54.1629 80.648 54.1189 80.758 54.0309 80.846C53.9429 80.934 53.8329 80.978 53.7009 80.978H51.6549C51.3469 80.978 51.1342 80.8387 51.0169 80.56C50.9289 80.0907 50.6356 79.702 50.1369 79.394C49.6382 79.0713 49.0222 78.91 48.2889 78.91C47.4676 78.91 46.8222 79.064 46.3529 79.372C45.8836 79.68 45.6489 80.1273 45.6489 80.714C45.6489 81.1247 45.7662 81.462 46.0009 81.726C46.2356 81.99 46.6022 82.2247 47.1009 82.43C47.6142 82.6353 48.3476 82.8627 49.3009 83.112C50.5916 83.4053 51.6182 83.7353 52.3809 84.102C53.1582 84.4687 53.7302 84.9307 54.0969 85.488C54.4636 86.0453 54.6469 86.7567 54.6469 87.622C54.6469 88.5607 54.3829 89.382 53.8549 90.086C53.3416 90.7753 52.6082 91.3033 51.6549 91.67C50.7162 92.0367 49.6309 92.22 48.3989 92.22ZM60.9123 92C60.7656 92 60.6409 91.9487 60.5383 91.846C60.4356 91.7433 60.3843 91.6187 60.3843 91.472V79.306H56.3143C56.1676 79.306 56.0429 79.2547 55.9403 79.152C55.8376 79.0493 55.7863 78.9247 55.7863 78.778V77.15C55.7863 76.9887 55.8303 76.8567 55.9183 76.754C56.0209 76.6513 56.1529 76.6 56.3143 76.6H67.5343C67.6956 76.6 67.8276 76.6513 67.9303 76.754C68.0329 76.8567 68.0843 76.9887 68.0843 77.15V78.778C68.0843 78.9247 68.0329 79.0493 67.9303 79.152C67.8276 79.2547 67.6956 79.306 67.5343 79.306H63.4863V91.472C63.4863 91.6187 63.4349 91.7433 63.3323 91.846C63.2296 91.9487 63.0976 92 62.9363 92H60.9123ZM67.7593 92C67.6419 92 67.5319 91.956 67.4293 91.868C67.3413 91.78 67.2973 91.67 67.2973 91.538L67.3413 91.34L72.6433 77.15C72.7459 76.7833 73.0026 76.6 73.4133 76.6H75.8113C76.1926 76.6 76.4493 76.7833 76.5813 77.15L81.8833 91.34C81.8979 91.384 81.9053 91.45 81.9053 91.538C81.9053 91.67 81.8613 91.78 81.7733 91.868C81.6853 91.956 81.5826 92 81.4653 92H79.5513C79.3606 92 79.2139 91.956 79.1113 91.868C79.0086 91.78 78.9426 91.6847 78.9133 91.582L77.8793 88.898H71.3453L70.3113 91.582C70.1939 91.8607 69.9813 92 69.6733 92H67.7593ZM77.1093 86.368L74.6013 79.57L72.1153 86.368H77.1093ZM84.4872 92C84.3405 92 84.2158 91.9487 84.1132 91.846C84.0105 91.7433 83.9592 91.6187 83.9592 91.472V77.15C83.9592 76.9887 84.0032 76.8567 84.0912 76.754C84.1938 76.6513 84.3258 76.6 84.4872 76.6H90.1852C91.9745 76.6 93.3752 77.018 94.3872 77.854C95.4138 78.69 95.9272 79.878 95.9272 81.418C95.9272 82.4887 95.6632 83.3907 95.1352 84.124C94.6218 84.8427 93.9032 85.3633 92.9792 85.686L96.1912 91.296C96.2352 91.384 96.2572 91.4647 96.2572 91.538C96.2572 91.67 96.2058 91.78 96.1032 91.868C96.0152 91.956 95.9125 92 95.7952 92H93.7932C93.5585 92 93.3752 91.9487 93.2432 91.846C93.1258 91.7433 93.0158 91.5967 92.9132 91.406L90.0752 86.192H87.0172V91.472C87.0172 91.6187 86.9658 91.7433 86.8632 91.846C86.7752 91.9487 86.6505 92 86.4892 92H84.4872ZM90.1192 83.706C90.9992 83.706 91.6592 83.508 92.0992 83.112C92.5538 82.716 92.7812 82.144 92.7812 81.396C92.7812 80.648 92.5538 80.0687 92.0992 79.658C91.6592 79.2473 90.9992 79.042 90.1192 79.042H87.0172V83.706H90.1192Z" fill="#FCF3F9"/>
</g>
</g>
<defs>
<filter id="filter0_d_774_3173" x="-1" y="0" width="103" height="97" filterUnits="userSpaceOnUse" color-interpolation-filters="sRGB">
<feFlood flood-opacity="0" result="BackgroundImageFix"/>
<feColorMatrix in="SourceAlpha" type="matrix" values="0 0 0 0 0 0 0 0 0 0 0 0 0 0 0 0 0 0 127 0" result="hardAlpha"/>
<feOffset/>
<feGaussianBlur stdDeviation="2"/>
<feComposite in2="hardAlpha" operator="out"/>
<feColorMatrix type="matrix" values="0 0 0 0 0 0 0 0 0 0.382083 0 0 0 0 0.545833 0 0 0 0.25 0"/>
<feBlend mode="normal" in2="BackgroundImageFix" result="effect1_dropShadow_774_3173"/>
<feBlend mode="normal" in="SourceGraphic" in2="effect1_dropShadow_774_3173" result="shape"/>
</filter>
<filter id="filter1_d_774_3173" x="10" y="0" width="81" height="71" filterUnits="userSpaceOnUse" color-interpolation-filters="sRGB">
<feFlood flood-opacity="0" result="BackgroundImageFix"/>
<feColorMatrix in="SourceAlpha" type="matrix" values="0 0 0 0 0 0 0 0 0 0 0 0 0 0 0 0 0 0 127 0" result="hardAlpha"/>
<feOffset/>
<feGaussianBlur stdDeviation="2"/>
<feComposite in2="hardAlpha" operator="out"/>
<feColorMatrix type="matrix" values="0 0 0 0 0 0 0 0 0 0.0143333 0 0 0 0 0.358333 0 0 0 0.44 0"/>
<feBlend mode="normal" in2="BackgroundImageFix" result="effect1_dropShadow_774_3173"/>
<feBlend mode="normal" in="SourceGraphic" in2="effect1_dropShadow_774_3173" result="shape"/>
</filter>
<filter id="filter2_d_774_3173" x="0.262207" y="72.3799" width="99.9951" height="23.8403" filterUnits="userSpaceOnUse" color-interpolation-filters="sRGB">
<feFlood flood-opacity="0" result="BackgroundImageFix"/>
<feColorMatrix in="SourceAlpha" type="matrix" values="0 0 0 0 0 0 0 0 0 0 0 0 0 0 0 0 0 0 127 0" result="hardAlpha"/>
<feOffset/>
<feGaussianBlur stdDeviation="2"/>
<feComposite in2="hardAlpha" operator="out"/>
<feColorMatrix type="matrix" values="0 0 0 0 0 0 0 0 0 0.0143333 0 0 0 0 0.358333 0 0 0 0.44 0"/>
<feBlend mode="normal" in2="BackgroundImageFix" result="effect1_dropShadow_774_3173"/>
<feBlend mode="normal" in="SourceGraphic" in2="effect1_dropShadow_774_3173" result="shape"/>
</filter>
</defs>
</svg>
