<svg width="24" height="24" viewBox="0 0 24 24" fill="none" xmlns="http://www.w3.org/2000/svg">
<path d="M4.26611 16.0601C5.11216 17.7706 6.48431 19.1649 8.18111 20.0381C9.86576 20.9031 11.7865 21.1952 13.6521 20.8701C15.5235 20.541 17.238 19.6148 18.5391 18.2301C19.8522 16.8323 20.6883 15.054 20.9271 13.1511C21.1696 11.2438 20.8043 9.30868 19.8831 7.6211C18.9706 5.94662 17.5447 4.60933 15.8151 3.8061C14.0968 3.01026 12.1658 2.79679 10.3151 3.1981C8.46511 3.5991 6.94811 4.5111 5.69511 5.9531C5.54311 6.1131 4.95911 6.7591 4.47511 7.7341" stroke="#FCF3F9" stroke-width="2" stroke-linecap="round" stroke-linejoin="round"/>
<path d="M8.931 7.81333L3.891 8.72033L3 3.59033" stroke="#FCF3F9" stroke-width="2" stroke-linecap="round" stroke-linejoin="round"/>
</svg>
