<svg width="26" height="40" viewBox="0 0 26 40" fill="none" xmlns="http://www.w3.org/2000/svg">
<path d="M4.37188 21.5812C2.06875 19.2781 0.796875 16.2102 0.796875 12.9531C0.796875 9.6918 2.06445 6.62812 4.37188 4.325C6.675 2.02188 9.74297 0.75 13 0.75C16.257 0.75 19.325 2.01758 21.6281 4.325C23.9312 6.63242 25.2031 9.6918 25.2031 12.9531C25.2031 15.6945 24.3051 18.2984 22.6508 20.4254C22.3371 20.8293 21.9977 21.2117 21.6324 21.5812C21.2672 21.9465 20.8805 22.2859 20.4809 22.5996C18.7793 23.923 16.7727 24.7652 14.6328 25.0488V29.625H19.5313C19.7203 29.625 19.875 29.7797 19.875 29.9688V32.5469C19.875 32.7359 19.7203 32.8906 19.5313 32.8906H14.6328V38.9063C14.6328 39.0953 14.4781 39.25 14.2891 39.25H11.7109C11.5219 39.25 11.3672 39.0953 11.3672 38.9063V32.8906H6.46875C6.27969 32.8906 6.125 32.7359 6.125 32.5469V29.9688C6.125 29.7797 6.27969 29.625 6.46875 29.625H11.3672V25.0488C8.72461 24.6965 6.28828 23.4977 4.37188 21.5812ZM13 21.8906C15.3891 21.8906 17.6277 20.9625 19.3207 19.2738C21.0094 17.5852 21.9375 15.3422 21.9375 12.9531C21.9375 10.5641 21.0094 8.32539 19.3207 6.63242C17.632 4.93945 15.3891 4.01563 13 4.01563C10.6109 4.01563 8.37227 4.94375 6.6793 6.63242C4.99063 8.32109 4.0625 10.5641 4.0625 12.9531C4.0625 15.3422 4.99063 17.5809 6.6793 19.2738C8.37227 20.9625 10.6109 21.8906 13 21.8906Z" fill="url(#paint0_linear_774_3249)"/>
<path d="M4.37188 21.5812C2.06875 19.2781 0.796875 16.2102 0.796875 12.9531C0.796875 9.6918 2.06445 6.62812 4.37188 4.325C6.675 2.02188 9.74297 0.75 13 0.75C16.257 0.75 19.325 2.01758 21.6281 4.325C23.9312 6.63242 25.2031 9.6918 25.2031 12.9531C25.2031 15.6945 24.3051 18.2984 22.6508 20.4254C22.3371 20.8293 21.9977 21.2117 21.6324 21.5812C21.2672 21.9465 20.8805 22.2859 20.4809 22.5996C18.7793 23.923 16.7727 24.7652 14.6328 25.0488V29.625H19.5313C19.7203 29.625 19.875 29.7797 19.875 29.9688V32.5469C19.875 32.7359 19.7203 32.8906 19.5313 32.8906H14.6328V38.9063C14.6328 39.0953 14.4781 39.25 14.2891 39.25H11.7109C11.5219 39.25 11.3672 39.0953 11.3672 38.9063V32.8906H6.46875C6.27969 32.8906 6.125 32.7359 6.125 32.5469V29.9688C6.125 29.7797 6.27969 29.625 6.46875 29.625H11.3672V25.0488C8.72461 24.6965 6.28828 23.4977 4.37188 21.5812ZM13 21.8906C15.3891 21.8906 17.6277 20.9625 19.3207 19.2738C21.0094 17.5852 21.9375 15.3422 21.9375 12.9531C21.9375 10.5641 21.0094 8.32539 19.3207 6.63242C17.632 4.93945 15.3891 4.01563 13 4.01563C10.6109 4.01563 8.37227 4.94375 6.6793 6.63242C4.99063 8.32109 4.0625 10.5641 4.0625 12.9531C4.0625 15.3422 4.99063 17.5809 6.6793 19.2738C8.37227 20.9625 10.6109 21.8906 13 21.8906Z" fill="url(#paint1_linear_774_3249)"/>
<path d="M4.37188 21.5812C2.06875 19.2781 0.796875 16.2102 0.796875 12.9531C0.796875 9.6918 2.06445 6.62812 4.37188 4.325C6.675 2.02188 9.74297 0.75 13 0.75C16.257 0.75 19.325 2.01758 21.6281 4.325C23.9312 6.63242 25.2031 9.6918 25.2031 12.9531C25.2031 15.6945 24.3051 18.2984 22.6508 20.4254C22.3371 20.8293 21.9977 21.2117 21.6324 21.5812C21.2672 21.9465 20.8805 22.2859 20.4809 22.5996C18.7793 23.923 16.7727 24.7652 14.6328 25.0488V29.625H19.5313C19.7203 29.625 19.875 29.7797 19.875 29.9688V32.5469C19.875 32.7359 19.7203 32.8906 19.5313 32.8906H14.6328V38.9063C14.6328 39.0953 14.4781 39.25 14.2891 39.25H11.7109C11.5219 39.25 11.3672 39.0953 11.3672 38.9063V32.8906H6.46875C6.27969 32.8906 6.125 32.7359 6.125 32.5469V29.9688C6.125 29.7797 6.27969 29.625 6.46875 29.625H11.3672V25.0488C8.72461 24.6965 6.28828 23.4977 4.37188 21.5812ZM13 21.8906C15.3891 21.8906 17.6277 20.9625 19.3207 19.2738C21.0094 17.5852 21.9375 15.3422 21.9375 12.9531C21.9375 10.5641 21.0094 8.32539 19.3207 6.63242C17.632 4.93945 15.3891 4.01563 13 4.01563C10.6109 4.01563 8.37227 4.94375 6.6793 6.63242C4.99063 8.32109 4.0625 10.5641 4.0625 12.9531C4.0625 15.3422 4.99063 17.5809 6.6793 19.2738C8.37227 20.9625 10.6109 21.8906 13 21.8906Z" stroke="url(#paint2_linear_774_3249)"/>
<defs>
<linearGradient id="paint0_linear_774_3249" x1="1.76758" y1="4.6" x2="33.3373" y2="17.2919" gradientUnits="userSpaceOnUse">
<stop stop-color="#FFF500"/>
<stop offset="0.34375" stop-color="#BEE74C"/>
<stop offset="1" stop-color="#10C200"/>
</linearGradient>
<linearGradient id="paint1_linear_774_3249" x1="1.76758" y1="4.6" x2="33.3373" y2="17.2919" gradientUnits="userSpaceOnUse">
<stop stop-color="#FFF500"/>
<stop offset="0.34375" stop-color="#BEE74C"/>
<stop offset="1" stop-color="#10C200"/>
</linearGradient>
<linearGradient id="paint2_linear_774_3249" x1="1.76758" y1="4.6" x2="33.3373" y2="17.2919" gradientUnits="userSpaceOnUse">
<stop stop-color="#FFF500"/>
<stop offset="0.34375" stop-color="#BEE74C"/>
<stop offset="1" stop-color="#10C200"/>
</linearGradient>
</defs>
</svg>
