<svg width="30" height="30" viewBox="0 0 30 30" fill="none" xmlns="http://www.w3.org/2000/svg">
<g clip-path="url(#clip0_661_7281)" filter="url(#filter0_d_661_7281)">
<g filter="url(#filter1_d_661_7281)">
<path d="M23.94 14C23.7135 11.9721 22.8042 10.0815 21.3613 8.63869C19.9185 7.19585 18.0279 6.28651 16 6.06V4H14V6.06C11.9721 6.28651 10.0815 7.19585 8.63869 8.63869C7.19585 10.0815 6.28651 11.9721 6.06 14H4V16H6.06C6.28651 18.0279 7.19585 19.9185 8.63869 21.3613C10.0815 22.8042 11.9721 23.7135 14 23.94V26H16V23.94C18.0279 23.7135 19.9185 22.8042 21.3613 21.3613C22.8042 19.9185 23.7135 18.0279 23.94 16H26V14H23.94ZM15 22C11.13 22 8 18.87 8 15C8 11.13 11.13 8 15 8C18.87 8 22 11.13 22 15C22 18.87 18.87 22 15 22Z" fill="#FCF3F9"/>
</g>
</g>
<defs>
<filter id="filter0_d_661_7281" x="-1" y="-1" width="32" height="32" filterUnits="userSpaceOnUse" color-interpolation-filters="sRGB">
<feFlood flood-opacity="0" result="BackgroundImageFix"/>
<feColorMatrix in="SourceAlpha" type="matrix" values="0 0 0 0 0 0 0 0 0 0 0 0 0 0 0 0 0 0 127 0" result="hardAlpha"/>
<feOffset/>
<feGaussianBlur stdDeviation="2"/>
<feComposite in2="hardAlpha" operator="out"/>
<feColorMatrix type="matrix" values="0 0 0 0 0 0 0 0 0 0.0143333 0 0 0 0 0.358333 0 0 0 0.44 0"/>
<feBlend mode="normal" in2="BackgroundImageFix" result="effect1_dropShadow_661_7281"/>
<feBlend mode="normal" in="SourceGraphic" in2="effect1_dropShadow_661_7281" result="shape"/>
</filter>
<filter id="filter1_d_661_7281" x="0" y="0" width="30" height="30" filterUnits="userSpaceOnUse" color-interpolation-filters="sRGB">
<feFlood flood-opacity="0" result="BackgroundImageFix"/>
<feColorMatrix in="SourceAlpha" type="matrix" values="0 0 0 0 0 0 0 0 0 0 0 0 0 0 0 0 0 0 127 0" result="hardAlpha"/>
<feOffset/>
<feGaussianBlur stdDeviation="2"/>
<feComposite in2="hardAlpha" operator="out"/>
<feColorMatrix type="matrix" values="0 0 0 0 0 0 0 0 0 0.0143333 0 0 0 0 0.358333 0 0 0 0.44 0"/>
<feBlend mode="normal" in2="BackgroundImageFix" result="effect1_dropShadow_661_7281"/>
<feBlend mode="normal" in="SourceGraphic" in2="effect1_dropShadow_661_7281" result="shape"/>
</filter>
<clipPath id="clip0_661_7281">
<rect width="24" height="24" fill="white" transform="translate(3 3)"/>
</clipPath>
</defs>
</svg>
