<svg width="39" height="39" viewBox="0 0 39 39" fill="none" xmlns="http://www.w3.org/2000/svg">
<path d="M24.6913 0.75C24.3975 0.75 24.1582 0.989353 24.1582 1.28316V3.92602C24.1582 4.21983 24.3975 4.45918 24.6913 4.45918H31.6577L22.8328 13.2841C20.4624 11.5182 17.5973 10.5663 14.5918 10.5663C10.8963 10.5663 7.4158 12.0085 4.80622 14.6229C2.1971 17.2368 0.75 20.7123 0.75 24.4082C0.75 28.1037 2.19216 31.5842 4.80655 34.1938C7.41609 36.808 10.8965 38.25 14.5918 38.25C18.2872 38.25 21.7676 36.808 24.3771 34.1938C26.9915 31.5842 28.4337 28.1037 28.4337 24.4082C28.4337 21.4025 27.4817 18.5465 25.7204 16.1769L34.5408 7.35649V14.3087C34.5408 14.6025 34.7802 14.8418 35.074 14.8418H37.7168C38.0106 14.8418 38.25 14.6025 38.25 14.3087V2.41582C38.25 1.49905 37.5009 0.75 36.5842 0.75H24.6913ZM14.5918 34.1633C9.21294 34.1633 4.83673 29.7871 4.83673 24.4082C4.83673 19.0293 9.21294 14.6531 14.5918 14.6531C19.9707 14.6531 24.3469 19.0293 24.3469 24.4082C24.3469 29.7871 19.9707 34.1633 14.5918 34.1633Z" fill="url(#paint0_linear_774_3196)" stroke="url(#paint1_linear_774_3196)" stroke-width="0.5"/>
<defs>
<linearGradient id="paint0_linear_774_3196" x1="2.47159" y1="4.7" x2="42.1205" y2="29.8447" gradientUnits="userSpaceOnUse">
<stop stop-color="#FFF500"/>
<stop offset="0.34375" stop-color="#BEE74C"/>
<stop offset="1" stop-color="#10C200"/>
</linearGradient>
<linearGradient id="paint1_linear_774_3196" x1="2.47159" y1="4.7" x2="42.1205" y2="29.8447" gradientUnits="userSpaceOnUse">
<stop stop-color="#FFF500"/>
<stop offset="0.34375" stop-color="#BEE74C"/>
<stop offset="1" stop-color="#10C200"/>
</linearGradient>
</defs>
</svg>
