<svg width="34" height="47" viewBox="0 0 34 47" fill="none" xmlns="http://www.w3.org/2000/svg">
<path d="M16.9997 29.25C21.0113 29.25 24.2255 26.0117 24.2255 22L24.2497 7.5C24.2497 3.48833 21.0113 0.25 16.9997 0.25C12.988 0.25 9.74967 3.48833 9.74967 7.5V22C9.74967 26.0117 12.988 29.25 16.9997 29.25ZM14.0997 7.25833C14.0997 5.66333 15.4047 4.35833 16.9997 4.35833C18.5947 4.35833 19.8997 5.66333 19.8997 7.25833L19.8755 22.2417C19.8755 23.8367 18.5947 25.1417 16.9997 25.1417C15.4047 25.1417 14.0997 23.8367 14.0997 22.2417V7.25833ZM29.808 22C29.808 29.25 23.6697 34.325 16.9997 34.325C10.3297 34.325 4.19134 29.25 4.19134 22H0.0830078C0.0830078 30.2408 6.65634 37.0558 14.583 38.24V46.1667H19.4163V38.24C27.343 37.08 33.9163 30.265 33.9163 22H29.808Z" fill="url(#paint0_linear_570:2264)"/>
<defs>
<linearGradient id="paint0_linear_570:2264" x1="1.42865" y1="4.84167" x2="43.1544" y2="24.3398" gradientUnits="userSpaceOnUse">
<stop stop-color="#FFF500"/>
<stop offset="0.34375" stop-color="#BEE74C"/>
<stop offset="1" stop-color="#10C200"/>
</linearGradient>
</defs>
</svg>
