<svg width="22" height="21" viewBox="0 0 22 21" fill="none" xmlns="http://www.w3.org/2000/svg">
<path fill-rule="evenodd" clip-rule="evenodd" d="M7.59091 2C7.59091 0.895431 8.48634 0 9.59091 0H20C21.1046 0 22 0.895429 22 2V19C22 20.1046 21.1046 21 20 21H9.59091C8.48634 21 7.59091 20.1046 7.59091 19V11.5H0V9.5H7.59091V2ZM9.59091 11.5V19L20 19V2H9.59091V9.5H14.7594L11.7037 6.45879L13.1145 5.04121L17.8872 9.79121C18.0758 9.97888 18.1818 10.234 18.1818 10.5C18.1818 10.766 18.0758 11.0211 17.8872 11.2088L13.1145 15.9588L11.7037 14.5412L14.7594 11.5H9.59091Z" fill="#FCF3F9"/>
</svg>
