<svg width="21" height="22" viewBox="0 0 21 22" fill="none" xmlns="http://www.w3.org/2000/svg">
<path fill-rule="evenodd" clip-rule="evenodd" d="M10 2C7.79086 2 6 3.79086 6 6C6 8.20914 7.79086 10 10 10C12.2091 10 14 8.20914 14 6C14 3.79086 12.2091 2 10 2ZM4 6C4 2.68629 6.68629 0 10 0C13.3137 0 16 2.68629 16 6C16 9.31371 13.3137 12 10 12C6.68629 12 4 9.31371 4 6Z" fill="#FCF3F9"/>
<path fill-rule="evenodd" clip-rule="evenodd" d="M4.64868 14C4.16106 13.9998 3.69018 14.1778 3.32456 14.5004C2.95898 14.823 2.72385 15.2681 2.66336 15.7519C2.66335 15.7519 2.66336 15.7518 2.66336 15.7519L2.27336 18.8759C2.25577 19.0166 2.2683 19.1596 2.31015 19.2951C2.35199 19.4306 2.42217 19.5556 2.51603 19.6619C2.60989 19.7682 2.72529 19.8533 2.85457 19.9116C2.98384 19.9699 3.12403 20 3.26584 20H15.0001C15.5523 20 16.0001 20.4477 16.0001 21C16.0001 21.5523 15.5523 22 15.0001 22H3.26628C3.26621 22 3.26635 22 3.26628 22C2.84093 22.0001 2.4202 21.9097 2.03245 21.7348C1.64463 21.56 1.29843 21.3046 1.01684 20.9857C0.735252 20.6668 0.524709 20.2917 0.399185 19.8852C0.273673 19.4787 0.236033 19.0502 0.288763 18.6281C0.288768 18.6281 0.288758 18.6282 0.288763 18.6281L0.678763 15.5041C0.799692 14.5364 1.27 13.6461 2.00122 13.0008C2.73235 12.3556 3.67397 11.9997 4.64906 12H5.00006C5.55235 12 6.00006 12.4477 6.00006 13C6.00006 13.5523 5.55235 14 5.00006 14L4.64868 14Z" fill="#FCF3F9"/>
<path fill-rule="evenodd" clip-rule="evenodd" d="M17 11C17.5523 11 18 11.4477 18 12V18C18 18.5523 17.5523 19 17 19C16.4477 19 16 18.5523 16 18V12C16 11.4477 16.4477 11 17 11Z" fill="#FCF3F9"/>
<path fill-rule="evenodd" clip-rule="evenodd" d="M13 15C13 14.4477 13.4477 14 14 14H20C20.5523 14 21 14.4477 21 15C21 15.5523 20.5523 16 20 16H14C13.4477 16 13 15.5523 13 15Z" fill="#FCF3F9"/>
</svg>
