<svg width="210" height="160" viewBox="0 0 210 160" fill="none" xmlns="http://www.w3.org/2000/svg">
<path d="M81.1566 62.3697L62.8633 94.149H72.995L86.5039 70.8067L81.1566 62.3697Z" stroke="url(#paint0_linear_1628_3296)" stroke-width="3"/>
<path d="M87.9111 94.149L83.4081 85.9933H105.923L86.5039 53.089L103.671 23.8408L120.558 53.089L116.055 61.2448L103.671 40.996L96.6356 53.089L120.558 94.149H87.9111Z" stroke="url(#paint1_linear_1628_3296)" stroke-width="3"/>
<path d="M121.683 70.8067L126.468 62.3697L144.761 94.149H135.474L121.683 70.8067Z" stroke="url(#paint2_linear_1628_3296)" stroke-width="3"/>
<path d="M98.0023 128.714L99.5483 128.715L99.5007 130.261L99.4314 132.51C99.281 137.397 98.5134 142.841 97.2842 147.76L95.829 147.397L97.2842 147.76C96.6954 150.116 95.7545 152.872 95.0596 154.087L93.7573 153.343L95.0596 154.088L94.8024 154.537L94.3726 155.289L93.5064 155.293L80.385 155.347C74.1744 155.373 70.901 155.389 69.1136 155.422C68.2131 155.439 67.7289 155.46 67.4477 155.484C67.3116 155.495 67.2507 155.505 67.2296 155.51L98.0023 128.714ZM98.0023 128.714L50.6095 128.687L3.56353 128.659L3.15686 128.46C3.15683 128.46 3.1568 128.46 3.15677 128.46C2.3535 128.067 1.77378 127.309 1.60001 126.389C1.59998 126.388 1.59996 126.387 1.59993 126.386C1.59801 126.325 1.59594 126.233 1.59381 126.108C1.58957 125.86 1.58541 125.501 1.58138 125.036C1.57333 124.106 1.56586 122.766 1.559 121.074C1.54527 117.69 1.53397 112.903 1.52506 107.18C1.50724 95.7339 1.49901 80.5468 1.50009 65.3584C1.50118 50.1699 1.51158 34.9809 1.53103 23.5308C1.54075 17.8056 1.55274 13.0162 1.56695 9.62938C1.57405 7.93563 1.58171 6.59456 1.58989 5.66323C1.59399 5.19703 1.5982 4.83681 1.60247 4.58753C1.60462 4.46218 1.60671 4.37 1.60864 4.30843C1.60872 4.30596 1.60879 4.30358 1.60887 4.30128C1.81725 3.17391 2.72485 2.26729 3.76736 2.06207C3.78184 2.06173 3.79861 2.06136 3.81786 2.06098C3.92035 2.05895 4.07158 2.05686 4.27264 2.05477C4.67357 2.05059 5.25801 2.04652 6.01533 2.04257C7.52922 2.03468 9.7254 2.0273 12.5073 2.02045C18.0707 2.00675 25.972 1.99518 35.4326 1.98577C54.3534 1.96695 79.5085 1.95678 104.665 1.95557C129.821 1.95435 154.978 1.9621 173.903 1.97909C183.365 1.98759 191.269 1.9984 196.835 2.01156C199.618 2.01814 201.816 2.0253 203.332 2.03305C204.09 2.03693 204.675 2.04094 205.077 2.04508C205.278 2.04715 205.43 2.04922 205.533 2.05125C205.555 2.05169 205.574 2.05211 205.59 2.0525C206.759 2.26675 207.642 3.15175 207.852 4.30099C207.852 4.30338 207.852 4.30586 207.852 4.30843C207.854 4.37 207.856 4.46218 207.859 4.58753C207.863 4.83681 207.867 5.19703 207.871 5.66323C207.879 6.59456 207.887 7.93563 207.894 9.62938C207.908 13.0162 207.92 17.8056 207.93 23.5308C207.949 34.9809 207.96 50.1699 207.961 65.3584C207.962 80.5468 207.954 95.7339 207.936 107.18C207.927 112.903 207.916 117.69 207.902 121.074C207.895 122.766 207.888 124.106 207.88 125.036C207.876 125.501 207.872 125.86 207.867 126.108C207.865 126.233 207.863 126.325 207.861 126.386C207.861 126.387 207.861 126.388 207.861 126.389C207.687 127.309 207.108 128.067 206.304 128.46L205.898 128.659L158.852 128.687L111.459 128.714L109.913 128.715L109.96 130.261L110.03 132.51C110.18 137.397 110.948 142.841 112.177 147.76L113.632 147.397L112.177 147.76C112.766 150.116 113.707 152.872 114.401 154.087L115.704 153.343L114.402 154.088L114.659 154.537L115.089 155.289L115.955 155.293L129.076 155.347C135.287 155.373 138.56 155.389 140.347 155.422C141.248 155.439 141.732 155.46 142.013 155.484C142.149 155.495 142.21 155.505 142.232 155.51C142.233 155.51 142.234 155.51 142.234 155.51C143.253 155.884 145.02 156.668 146.79 157.504C144.587 157.511 141.832 157.518 138.628 157.524C129.929 157.541 117.93 157.551 104.731 157.551C91.5311 157.551 79.5319 157.541 70.8331 157.524C67.6292 157.518 64.8736 157.511 62.6708 157.504C64.4411 156.668 66.2079 155.884 67.227 155.51L98.0023 128.714ZM1.60209 126.442C1.60238 126.446 1.6025 126.448 1.60248 126.448C1.60246 126.448 1.60232 126.446 1.60209 126.442ZM1.61116 4.24638C1.61117 4.24645 1.61108 4.24816 1.61087 4.25128L1.61116 4.24638ZM3.70688 2.06382C3.69454 2.06463 3.68714 2.06491 3.68652 2.06485C3.6859 2.06479 3.69206 2.06439 3.70688 2.06382ZM205.664 2.05507C205.663 2.0551 205.657 2.05483 205.646 2.05411C205.66 2.05466 205.666 2.05504 205.664 2.05507ZM201.277 120.33H202.777V118.83V63.4861V8.14207V6.64207H201.277H105.058H8.83871H7.33871V8.14207V63.4861V118.83V120.33H8.83871H105.058H201.277Z" stroke="url(#paint3_linear_1628_3296)" stroke-width="3"/>
<defs>
<linearGradient id="paint0_linear_1628_3296" x1="53.8951" y1="32.1319" x2="143.634" y2="92.669" gradientUnits="userSpaceOnUse">
<stop stop-color="#000691"/>
<stop offset="1" stop-color="#77079E"/>
</linearGradient>
<linearGradient id="paint1_linear_1628_3296" x1="53.8951" y1="32.1319" x2="143.634" y2="92.669" gradientUnits="userSpaceOnUse">
<stop stop-color="#000691"/>
<stop offset="1" stop-color="#77079E"/>
</linearGradient>
<linearGradient id="paint2_linear_1628_3296" x1="53.8951" y1="32.1319" x2="143.634" y2="92.669" gradientUnits="userSpaceOnUse">
<stop stop-color="#000691"/>
<stop offset="1" stop-color="#77079E"/>
</linearGradient>
<linearGradient id="paint3_linear_1628_3296" x1="-22.9369" y1="19.1577" x2="187.761" y2="180.314" gradientUnits="userSpaceOnUse">
<stop stop-color="#000691"/>
<stop offset="1" stop-color="#77079E"/>
</linearGradient>
</defs>
</svg>
