<svg width="32" height="32" viewBox="0 0 32 32" fill="none" xmlns="http://www.w3.org/2000/svg">
<path d="M26.3906 0C28.3387 0 29.9075 1.516 30 3.302V32L26.293 28.969L24.2587 27.188L22.0343 25.323L22.96 28.261H3.51688C1.57403 28.261 0 26.844 0 24.959V3.308C0 1.522 1.57507 0.006 3.52312 0.006H26.3803L26.3906 0ZM17.9158 7.578H17.8722L17.5906 7.844C20.4644 8.646 21.8545 9.896 21.8545 9.896C20.0042 9.005 18.3314 8.557 16.6649 8.375C15.4639 8.198 14.2566 8.292 13.2395 8.375H12.9579C12.3086 8.375 10.9236 8.646 9.06701 9.359C8.42286 9.63 8.04987 9.807 8.04987 9.807C8.04987 9.807 9.43481 8.468 12.4977 7.755L12.3086 7.578C12.3086 7.578 9.99273 7.489 7.49299 9.271C7.49299 9.271 4.99325 13.464 4.99325 18.63C4.99325 18.63 6.37818 20.948 10.1777 21.036C10.1777 21.036 10.7345 20.328 11.2925 19.703C9.16052 19.078 8.32727 17.828 8.32727 17.828C8.32727 17.828 8.51636 17.917 8.79273 18.094H8.87377C8.9174 18.094 8.93922 18.115 8.96 18.136V18.146C8.98182 18.167 9.00364 18.182 9.04104 18.182C9.5013 18.364 9.95533 18.541 10.3294 18.718C10.9787 18.984 11.8068 19.254 12.8239 19.432C14.1122 19.614 15.5886 19.698 17.2717 19.432C18.0997 19.25 18.933 19.078 19.7662 18.718C20.3023 18.452 20.9673 18.187 21.6977 17.734C21.6977 17.734 20.8696 18.984 18.6452 19.609C19.1003 20.229 19.7434 20.942 19.7434 20.942C23.547 20.859 25.0244 18.541 25.1055 18.64C25.1055 13.479 22.5891 9.281 22.5891 9.281C20.3273 7.661 18.2057 7.599 17.8327 7.599L17.9086 7.573L17.9158 7.578ZM18.1486 13.464C19.1231 13.464 19.9075 14.261 19.9075 15.24C19.9075 16.23 19.1179 17.026 18.1486 17.026C17.174 17.026 16.3896 16.229 16.3896 15.25C16.3896 14.26 17.1792 13.464 18.1486 13.464ZM11.8556 13.464C12.8239 13.464 13.6094 14.261 13.6094 15.24C13.6094 16.23 12.8197 17.026 11.8504 17.026C10.8758 17.026 10.0862 16.229 10.0862 15.25C10.0862 14.26 10.8758 13.464 11.8504 13.464H11.8556Z" fill="#FCF3F9"/>
</svg>
