<svg width="32" height="32" viewBox="0 0 32 32" fill="none" xmlns="http://www.w3.org/2000/svg">
<path fill-rule="evenodd" clip-rule="evenodd" d="M15.9991 28.7828C8.83001 28.7828 3 23.0137 3 15.92C3 8.82621 8.83001 3.05713 15.9991 3.05713C23.1683 3.05713 29 8.82621 29 15.92C29 23.0137 23.1683 28.7828 15.9991 28.7828ZM16.0269 4.53744C13.0046 4.54111 10.1071 5.73969 7.97005 7.87029C5.83296 10.0009 4.63073 12.8896 4.62706 15.9027C4.63027 18.9161 5.8323 21.8052 7.96944 23.9362C10.1066 26.0672 13.0043 27.266 16.0269 27.2696C19.0498 27.2664 21.9479 26.0678 24.0855 23.9368C26.223 21.8058 27.4252 18.9164 27.4284 15.9027C27.4248 12.8893 26.2223 10.0003 24.0848 7.86968C21.9474 5.73903 19.0495 4.54065 16.0269 4.53744Z" fill="#FCF3F9"/>
<path fill-rule="evenodd" clip-rule="evenodd" d="M15.1422 4.64404H16.7403V29.0001H15.1422V4.64404Z" fill="#FCF3F9"/>
<path fill-rule="evenodd" clip-rule="evenodd" d="M3 15.0187H27.2151V16.6131H3V15.0187Z" fill="#FCF3F9"/>
<path fill-rule="evenodd" clip-rule="evenodd" d="M4.73334 9.82957H26.2529V11.3964H4.73334V9.82957Z" fill="#FCF3F9"/>
<path fill-rule="evenodd" clip-rule="evenodd" d="M4.73334 20.2076H26.2529V21.8021H4.73334V20.2076Z" fill="#FCF3F9"/>
<path fill-rule="evenodd" clip-rule="evenodd" d="M15.6921 28.6012C11.1873 26.3997 8.27838 21.3518 8.27838 15.7401C8.27838 10.258 11.0936 5.25679 15.4562 3L16.2558 4.53393C12.4622 6.50019 10.013 10.8979 10.013 15.7401C10.013 20.6946 12.5438 25.1338 16.4553 27.0465L15.6921 28.6012Z" fill="#FCF3F9"/>
<path fill-rule="evenodd" clip-rule="evenodd" d="M16.4258 28.4888L15.6123 26.9618C19.3226 25.0007 21.7198 20.5961 21.7198 15.7401C21.7198 10.9412 19.3625 6.55732 15.7181 4.57376L16.549 3.05713C20.7433 5.3364 23.4545 10.3152 23.4545 15.7401C23.4562 21.2308 20.6947 26.2338 16.4258 28.4888Z" fill="#FCF3F9"/>
</svg>
