<svg width="32" height="32" viewBox="0 0 32 32" fill="none" xmlns="http://www.w3.org/2000/svg">
<path d="M17.6 16C18.4487 16 19.2626 16.3371 19.8628 16.9373C20.4629 17.5374 20.8 18.3513 20.8 19.2V21.6C20.8 24.8864 17.4592 27.2 12 27.2C6.54081 27.2 3.20001 24.8864 3.20001 21.6V19.2C3.20001 18.3513 3.53715 17.5374 4.13727 16.9373C4.73739 16.3371 5.55132 16 6.40001 16H17.6ZM25.6 16C26.4487 16 27.2626 16.3371 27.8628 16.9373C28.4629 17.5374 28.8 18.3513 28.8 19.2V20C28.8 23.3424 26.2912 25.6 21.6 25.6C21.3744 25.6 21.152 25.5952 20.9376 25.584C21.8 24.5808 22.3104 23.3664 22.3888 21.9824L22.4 21.6V19.2C22.4 18.0928 22.0256 17.072 21.3952 16.2608L21.176 16H25.6ZM12 3.2C12.7354 3.2 13.4636 3.34485 14.143 3.62627C14.8225 3.9077 15.4398 4.32019 15.9598 4.8402C16.4798 5.36021 16.8923 5.97755 17.1737 6.65697C17.4552 7.33639 17.6 8.06459 17.6 8.8C17.6 9.5354 17.4552 10.2636 17.1737 10.943C16.8923 11.6224 16.4798 12.2398 15.9598 12.7598C15.4398 13.2798 14.8225 13.6923 14.143 13.9737C13.4636 14.2551 12.7354 14.4 12 14.4C10.5148 14.4 9.09042 13.81 8.04021 12.7598C6.99001 11.7096 6.40001 10.2852 6.40001 8.8C6.40001 7.31478 6.99001 5.8904 8.04021 4.8402C9.09042 3.79 10.5148 3.2 12 3.2ZM23.2 6.4C24.2609 6.4 25.2783 6.82142 26.0284 7.57157C26.7786 8.32172 27.2 9.33913 27.2 10.4C27.2 11.4609 26.7786 12.4783 26.0284 13.2284C25.2783 13.9786 24.2609 14.4 23.2 14.4C22.1391 14.4 21.1217 13.9786 20.3716 13.2284C19.6214 12.4783 19.2 11.4609 19.2 10.4C19.2 9.33913 19.6214 8.32172 20.3716 7.57157C21.1217 6.82142 22.1391 6.4 23.2 6.4Z" fill="#FCF3F9"/>
</svg>
