<svg width="32" height="32" viewBox="0 0 32 32" fill="none" xmlns="http://www.w3.org/2000/svg">
<path d="M16.0001 2.66669C14.5856 2.66669 13.229 3.22859 12.2288 4.22878C11.2287 5.22898 10.6667 6.58553 10.6667 8.00002C10.6667 9.41451 11.2287 10.7711 12.2288 11.7713C13.229 12.7715 14.5856 13.3334 16.0001 13.3334C17.4146 13.3334 18.7711 12.7715 19.7713 11.7713C20.7715 10.7711 21.3334 9.41451 21.3334 8.00002C21.3334 6.58553 20.7715 5.22898 19.7713 4.22878C18.7711 3.22859 17.4146 2.66669 16.0001 2.66669Z" fill="#FCF3F9"/>
<path d="M22.6667 16H9.33337C8.27251 16 7.25509 16.4214 6.50495 17.1716C5.7548 17.9217 5.33337 18.9391 5.33337 20C5.33337 22.976 6.55737 25.36 8.56537 26.9733C10.5414 28.56 13.192 29.3333 16 29.3333C18.808 29.3333 21.4587 28.56 23.4347 26.9733C25.44 25.36 26.6667 22.976 26.6667 20C26.6667 18.9391 26.2453 17.9217 25.4951 17.1716C24.745 16.4214 23.7276 16 22.6667 16Z" fill="#FCF3F9"/>
</svg>
