<svg width="168" height="160" viewBox="0 0 168 160" fill="none" xmlns="http://www.w3.org/2000/svg">
<path d="M138.248 130.322C149.342 142.163 159.222 152.695 163.315 157.047L142.592 157.032L118.057 157.014L91.4569 128.816L64.265 99.99L63.6687 99.358L62.7998 99.3624L52.3713 99.4163L41.9427 99.4702L40.2562 99.4789L39.9801 101.143L38.4518 110.35L37.2002 117.891L19.4411 117.956L2.32891 118.018C2.84416 114.404 4.33479 103.798 6.0227 91.7329C7.04228 84.4457 7.98324 77.8079 8.67784 72.9842C9.02521 70.5718 9.31058 68.6157 9.51322 67.2599C9.53793 67.0946 9.56136 66.9385 9.58348 66.7919C10.2808 66.7852 11.1884 66.7786 12.2891 66.7721C15.1015 66.7556 19.1624 66.7399 24.1707 66.7259C34.1866 66.6978 47.9854 66.6765 63.1493 66.6688L118.294 66.6405L118.741 66.6403L119.145 66.4497L120.656 65.7378L120.656 65.7377C121.582 65.3014 122.826 64.5574 123.49 63.9953L123.49 63.9949C123.937 63.6165 124.375 63.0574 124.716 62.5686C125.083 62.0436 125.452 61.4328 125.741 60.8458C126.679 58.9393 126.925 57.5429 127.839 51.1233C128.415 47.0741 128.979 42.3262 129.083 40.5722L129.089 40.4771C129.168 39.1419 129.226 38.17 129.121 37.3719C128.994 36.4174 128.645 35.7419 128.282 35.0398L128.264 35.0059C127.92 34.3407 127.552 33.7223 127.025 33.1819C126.485 32.6285 125.886 32.2658 125.247 31.9421L123.882 31.2493L123.456 31.0336L122.979 31.0329L67.6955 30.9615L14.5919 30.8931C14.6938 30.1071 14.8321 29.068 14.9988 27.8335C15.3734 25.0611 15.8903 21.3149 16.4591 17.2649C17.028 13.2133 17.5631 9.42955 17.9669 6.59758C18.1688 5.18142 18.3376 4.0043 18.4614 3.15106C18.4996 2.88764 18.5334 2.65571 18.5625 2.45753L81.173 2.53432L145.25 2.61319L147.497 3.14392C148.779 3.44705 150.89 4.07985 152.128 4.53259L152.129 4.53276C153.353 4.98023 155.051 5.77502 155.829 6.24676C156.67 6.75754 158.045 7.71961 158.83 8.3471C159.537 8.91219 160.797 10.2072 161.54 11.157C162.269 12.0885 163.344 13.8207 163.871 14.9144C164.406 16.027 165.128 17.9621 165.444 19.1262L165.444 19.1265C165.946 20.9811 166.007 21.4433 165.999 27.8085L165.992 34.5413L163.473 52.4955C162.072 62.4848 160.632 72.0025 160.271 73.7089L160.271 73.7091C159.908 75.4331 159.176 78.1667 158.662 79.7291C158.141 81.3103 157.262 83.5728 156.734 84.7071C156.209 85.8333 155.176 87.6586 154.478 88.693C153.813 89.6779 152.372 91.3604 151.337 92.3435C150.264 93.3624 148.805 94.4973 148.184 94.8518C147.465 95.2622 145.956 95.9726 144.887 96.3945L144.887 96.3947C143.843 96.8072 141.95 97.4085 140.745 97.7084L140.744 97.7085C139.521 98.013 137.289 98.4653 135.825 98.7038L135.824 98.7038C134.031 98.9962 130.634 99.1743 123.641 99.2981L113.918 99.4705L109.414 99.5503L112.494 102.838L138.248 130.322Z" stroke="url(#paint0_linear_1628_3289)" stroke-width="4"/>
<defs>
<linearGradient id="paint0_linear_1628_3289" x1="-18.3967" y1="19.1577" x2="176.218" y2="138.548" gradientUnits="userSpaceOnUse">
<stop stop-color="#000691"/>
<stop offset="1" stop-color="#77079E"/>
</linearGradient>
</defs>
</svg>
