<svg width="32" height="22" viewBox="0 0 32 22" fill="none" xmlns="http://www.w3.org/2000/svg">
<path d="M31.3334 3.67594C31.1522 3.02958 30.7993 2.4444 30.3121 1.98261C29.8111 1.50661 29.1972 1.16612 28.5281 0.993272C26.0241 0.333272 15.9921 0.333272 15.9921 0.333272C11.8099 0.285689 7.62866 0.494971 3.47209 0.959938C2.80301 1.14556 2.19017 1.49365 1.68809 1.97327C1.19476 2.44794 0.837424 3.03327 0.650757 3.67461C0.202348 6.09026 -0.0155202 8.54306 9.04891e-05 10.9999C-0.0159095 13.4546 0.201424 15.9066 0.650757 18.3253C0.833424 18.9639 1.18942 19.5466 1.68409 20.0173C2.17876 20.4879 2.79476 20.8279 3.47209 21.0079C6.00942 21.6666 15.9921 21.6666 15.9921 21.6666C20.1796 21.7143 24.3662 21.505 28.5281 21.0399C29.1972 20.8671 29.8111 20.5266 30.3121 20.0506C30.8054 19.5799 31.1561 18.9946 31.3321 18.3573C31.7922 15.9425 32.0159 13.4887 32.0001 11.0306C32.0347 8.56208 31.8113 6.09669 31.3334 3.67461V3.67594ZM12.8028 15.5653V6.43594L21.1494 11.0013L12.8028 15.5653Z" fill="#FCF3F9"/>
</svg>
